<svg width="17" height="8" viewBox="0 0 17 8" fill="none" xmlns="http://www.w3.org/2000/svg">
<path d="M16.4936 0.684121C16.5279 0.640539 16.5534 0.590618 16.5684 0.537208C16.5835 0.483799 16.5879 0.427946 16.5813 0.37284C16.5748 0.317735 16.5575 0.264455 16.5304 0.216042C16.5033 0.16763 16.4669 0.125033 16.4233 0.0906837C16.3797 0.0563348 16.3298 0.0309065 16.2764 0.0158506C16.223 0.000794623 16.1671 -0.00359392 16.112 0.00293519C16.0569 0.00946431 16.0036 0.0267834 15.9552 0.0539036C15.9068 0.0810238 15.8642 0.117414 15.8298 0.160996C15.7961 0.205996 12.3761 4.50068 8.28672 4.50068C4.19734 4.50068 0.777342 0.205996 0.743592 0.160996C0.673889 0.0734592 0.572454 0.0169692 0.461333 0.00380316C0.350212 -0.00936287 0.238384 0.0218591 0.150155 0.0906837C-0.45172 0.532246 0.861717 1.58131 2.2089 2.81037L1.02765 3.99162C0.970061 4.05112 0.931119 4.12616 0.915621 4.20751C0.900122 4.28885 0.908743 4.37295 0.940422 4.44946C0.972102 4.52597 1.02546 4.59155 1.09393 4.63813C1.16239 4.68471 1.24298 4.71025 1.32578 4.71162C1.57328 4.79881 2.69547 3.45725 2.88109 3.3335C4.21703 4.31225 5.9439 5.21225 7.86484 5.33037V7.17256C7.86484 7.28445 7.90929 7.39175 7.98841 7.47087C8.06752 7.54999 8.17483 7.59443 8.28672 7.59443C8.39861 7.59443 8.50591 7.54999 8.58503 7.47087C8.66415 7.39175 8.70859 7.28445 8.70859 7.17256V5.33037C10.6295 5.21225 12.3648 4.31225 13.6923 3.3335C13.8864 3.46568 14.9973 4.796 15.2477 4.71162C15.3305 4.71025 15.411 4.68471 15.4795 4.63813C15.548 4.59155 15.6013 4.52597 15.633 4.44946C15.6647 4.37295 15.6733 4.28885 15.6578 4.20751C15.6423 4.12616 15.6034 4.05112 15.5458 3.99162L14.3645 2.81037C15.1435 2.17458 15.8568 1.46227 16.4936 0.684121Z" fill="#777B8B"/>
</svg>
