<svg width="17" height="11" viewBox="0 0 17 11" fill="none" xmlns="http://www.w3.org/2000/svg">
<path d="M16.4873 6.91031C15.8506 6.13119 15.1373 5.41793 14.3582 4.78125L15.5395 3.6C15.614 3.52003 15.6545 3.41425 15.6526 3.30496C15.6507 3.19566 15.6064 3.09138 15.5291 3.01409C15.4518 2.93679 15.3475 2.89252 15.2383 2.89059C15.129 2.88866 15.0232 2.92923 14.9432 3.00375L13.686 4.25812C12.3501 3.27937 10.6232 2.37938 8.70227 2.26125V0.421875C8.70227 0.309987 8.65782 0.202681 8.57871 0.123564C8.49959 0.0444474 8.39228 0 8.2804 0C8.16851 0 8.0612 0.0444474 7.98209 0.123564C7.90297 0.202681 7.85852 0.309987 7.85852 0.421875V2.26406C5.93758 2.38219 4.20227 3.28219 2.87477 4.26094L1.61758 3.00656C1.57896 2.96511 1.53239 2.93187 1.48064 2.90881C1.42889 2.88575 1.37302 2.87335 1.31638 2.87235C1.25973 2.87136 1.20347 2.88178 1.15093 2.90299C1.0984 2.92421 1.05068 2.95579 1.01062 2.99585C0.970564 3.03591 0.938982 3.08363 0.917764 3.13616C0.896546 3.18869 0.886126 3.24496 0.887125 3.30161C0.888125 3.35825 0.900524 3.41412 0.923582 3.46587C0.946639 3.51761 0.979884 3.56419 1.02133 3.60281L2.20258 4.78406C0.846958 6.01594 -0.438354 7.065 0.143833 7.50375C0.232063 7.57257 0.34389 7.6038 0.455011 7.59063C0.566133 7.57746 0.667567 7.52097 0.737271 7.43344C0.771021 7.38844 4.19102 3.09375 8.2804 3.09375C12.3698 3.09375 15.7898 7.38844 15.8235 7.43344C15.8929 7.52146 15.9944 7.57831 16.1057 7.5915C16.217 7.60469 16.3289 7.57312 16.417 7.50375C16.505 7.43438 16.5618 7.33288 16.575 7.22159C16.5882 7.1103 16.5566 6.99833 16.4873 6.91031Z" fill="#777B8B"/>
<path d="M8.28034 3.65625C3.63409 3.80531 3.63409 10.5413 8.28034 10.6875C12.9266 10.5384 12.9266 3.8025 8.28034 3.65625ZM8.28034 5.78813C7.91358 5.78887 7.56205 5.93489 7.3027 6.19424C7.04336 6.45358 6.89734 6.80511 6.89659 7.17188C6.89659 7.28376 6.85214 7.39107 6.77303 7.47019C6.69391 7.5493 6.58661 7.59375 6.47472 7.59375C6.36283 7.59375 6.25552 7.5493 6.17641 7.47019C6.09729 7.39107 6.05284 7.28376 6.05284 7.17188C6.05359 6.58133 6.28851 6.01519 6.70608 5.59762C7.12366 5.18004 7.6898 4.94512 8.28034 4.94438C8.39223 4.94438 8.49954 4.98882 8.57865 5.06794C8.65777 5.14706 8.70222 5.25436 8.70222 5.36625C8.70222 5.47814 8.65777 5.58544 8.57865 5.66456C8.49954 5.74368 8.39223 5.78813 8.28034 5.78813Z" fill="#777B8B"/>
</svg>
